<?xml version="1.0" encoding="UTF-8" standalone="no"?>
<svg
   width="900px"
   height="900px"
   viewBox="0 0 900 900"
   version="1.1"
   xml:space="preserve"
   id="SVGRoot"
   inkscape:version="1.3.2 (091e20ef0f, 2023-11-25, custom)"
   sodipodi:docname="vfd-grid.svg"
   inkscape:export-filename="vfd-grid-inverse.png"
   inkscape:export-xdpi="54.613335"
   inkscape:export-ydpi="54.613335"
   xmlns:inkscape="http://www.inkscape.org/namespaces/inkscape"
   xmlns:sodipodi="http://sodipodi.sourceforge.net/DTD/sodipodi-0.dtd"
   xmlns="http://www.w3.org/2000/svg"
   xmlns:svg="http://www.w3.org/2000/svg"><defs
   id="defs126"><inkscape:path-effect
     effect="skeletal"
     id="path-effect129"
     is_visible="true"
     lpeversion="1"
     pattern="M 0,0 H 1"
     copytype="single_stretched"
     prop_scale="1"
     scale_y_rel="false"
     spacing="0"
     normal_offset="0"
     tang_offset="0"
     prop_units="false"
     vertical_pattern="false"
     hide_knot="false"
     fuse_tolerance="0" /><inkscape:path-effect
     effect="dashed_stroke"
     id="path-effect128"
     is_visible="true"
     lpeversion="1"
     numberdashes="2"
     holefactor="0.79"
     splitsegments="true"
     halfextreme="true"
     unifysegment="true"
     message="Add &lt;b&gt;&quot;Fill Between Many LPE&quot;&lt;/b&gt; to add fill." /><inkscape:path-effect
     effect="simplify"
     id="path-effect127"
     is_visible="true"
     lpeversion="1.3"
     threshold="5"
     steps="1"
     smooth_angles="360"
     helper_size="10"
     simplify_individual_paths="false"
     simplify_just_coalesce="false" /></defs>
<sodipodi:namedview
   pagecolor="#a9a9a9"
   bordercolor="#292929"
   borderopacity="1"
   inkscape:showpageshadow="2"
   inkscape:pageopacity="0.0"
   inkscape:pagecheckerboard="0"
   inkscape:deskcolor="#232323"
   id="namedview1"
   inkscape:zoom="1.3155556"
   inkscape:cx="540.45608"
   inkscape:cy="452.28041"
   inkscape:window-width="2560"
   inkscape:window-height="1416"
   inkscape:window-x="0"
   inkscape:window-y="0"
   inkscape:window-maximized="1"
   inkscape:current-layer="SVGRoot" />
<style
   type="text/css"
   id="style1">
g.prefab path {
  vector-effect:non-scaling-stroke;
  -inkscape-stroke:hairline;
  fill: none;
  fill-opacity: 1;
  stroke-opacity: 1;
  stroke: #00349c;
}
</style>
<rect
   style="fill:#000000;stroke:none;stroke-width:20;stroke-dasharray:none;stroke-opacity:1;fill-opacity:1"
   id="rect127"
   width="926.31079"
   height="925.00134"
   x="-13.631955"
   y="-12.601615" /><path
   d="m 458.88477,207.77344 -23.30079,40.35547 23.30079,40.35742 h 46.60156 l 23.30078,-40.35742 -23.30078,-40.35547 z"
   style="fill:none;stroke:#ffffff;stroke-width:5;stroke-dasharray:none;stroke-opacity:1"
   id="path254" /><path
   d="m 179.27539,207.77344 -23.29883,40.35547 23.29883,40.35742 h 46.60156 l 23.30078,-40.35742 -23.30078,-40.35547 z"
   style="fill:none;stroke:#ffffff;stroke-width:5;stroke-dasharray:none;stroke-opacity:1"
   id="path253" /><path
   d="m 319.08008,207.77344 -23.30078,40.35547 23.30078,40.35742 h 46.60156 l 23.30078,-40.35742 -23.30078,-40.35547 z"
   style="fill:none;stroke:#ffffff;stroke-width:5;stroke-dasharray:none;stroke-opacity:1"
   id="path252" /><path
   d="m 598.68945,207.77344 -23.30078,40.35547 23.30078,40.35742 h 46.60157 l 23.30078,-40.35742 -23.30078,-40.35547 z"
   style="fill:none;stroke:#ffffff;stroke-width:5;stroke-dasharray:none;stroke-opacity:1"
   id="path251" /><path
   d="m 738.49219,207.77344 -23.30078,40.35547 23.30078,40.35742 h 46.60156 l 23.30078,-40.35742 -23.30078,-40.35547 z"
   style="fill:none;stroke:#ffffff;stroke-width:5;stroke-dasharray:none;stroke-opacity:1"
   id="path250" /><path
   d="m 528.78711,167.41602 -23.30078,40.35742 23.30078,40.35547 h 46.60156 l 23.30078,-40.35547 -23.30078,-40.35742 z"
   style="fill:none;stroke:#ffffff;stroke-width:5;stroke-dasharray:none;stroke-opacity:1"
   id="path249" /><path
   d="m 249.17773,167.41602 -23.30078,40.35742 23.30078,40.35547 h 46.60157 l 23.30078,-40.35547 -23.30078,-40.35742 z"
   style="fill:none;stroke:#ffffff;stroke-width:5;stroke-dasharray:none;stroke-opacity:1"
   id="path248" /><path
   d="m 388.98242,167.41602 -23.30078,40.35742 23.30078,40.35547 h 46.60156 l 23.30079,-40.35547 -23.30079,-40.35742 z"
   style="fill:none;stroke:#ffffff;stroke-width:5;stroke-dasharray:none;stroke-opacity:1"
   id="path247" /><path
   d="m 668.5918,167.41602 -23.30078,40.35742 23.30078,40.35547 h 46.59961 l 23.30078,-40.35547 -23.30078,-40.35742 z"
   style="fill:none;stroke:#ffffff;stroke-width:5;stroke-dasharray:none;stroke-opacity:1"
   id="path246" /><path
   d="m 808.39453,167.41602 -23.30078,40.35742 23.30078,40.35547 h 46.60156 l 23.30078,-40.35547 -23.30078,-40.35742 z"
   style="fill:none;stroke:#ffffff;stroke-width:5;stroke-dasharray:none;stroke-opacity:1"
   id="path245" /><path
   d="m 528.78711,248.12891 -23.30078,40.35742 23.30078,40.35742 h 46.60156 l 23.30078,-40.35742 -23.30078,-40.35742 z"
   style="fill:none;stroke:#ffffff;stroke-width:5;stroke-dasharray:none;stroke-opacity:1"
   id="path244" /><path
   d="m 249.17773,248.12891 -23.30078,40.35742 23.30078,40.35742 h 46.60157 l 23.30078,-40.35742 -23.30078,-40.35742 z"
   style="fill:none;stroke:#ffffff;stroke-width:5;stroke-dasharray:none;stroke-opacity:1"
   id="path243" /><path
   d="m 388.98242,248.12891 -23.30078,40.35742 23.30078,40.35742 h 46.60156 l 23.30079,-40.35742 -23.30079,-40.35742 z"
   style="fill:none;stroke:#ffffff;stroke-width:5;stroke-dasharray:none;stroke-opacity:1"
   id="path242" /><path
   d="m 668.5918,248.12891 -23.30078,40.35742 23.30078,40.35742 h 46.59961 l 23.30078,-40.35742 -23.30078,-40.35742 z"
   style="fill:none;stroke:#ffffff;stroke-width:5;stroke-dasharray:none;stroke-opacity:1"
   id="path241" /><path
   d="m 808.39453,248.12891 -23.30078,40.35742 23.30078,40.35742 h 46.60156 l 23.30078,-40.35742 -23.30078,-40.35742 z"
   style="fill:none;stroke:#ffffff;stroke-width:5;stroke-dasharray:none;stroke-opacity:1"
   id="path240" /><path
   d="m 458.88477,127.05859 -23.30079,40.35743 23.30079,40.35742 h 46.60156 l 23.30078,-40.35742 -23.30078,-40.35743 z"
   style="fill:none;stroke:#ffffff;stroke-width:5;stroke-dasharray:none;stroke-opacity:1"
   id="path239" /><path
   d="m 179.27539,127.05859 -23.29883,40.35743 23.29883,40.35742 h 46.60156 l 23.30078,-40.35742 -23.30078,-40.35743 z"
   style="fill:none;stroke:#ffffff;stroke-width:5;stroke-dasharray:none;stroke-opacity:1"
   id="path238" /><path
   d="m 319.08008,127.05859 -23.30078,40.35743 23.30078,40.35742 h 46.60156 l 23.30078,-40.35742 -23.30078,-40.35743 z"
   style="fill:none;stroke:#ffffff;stroke-width:5;stroke-dasharray:none;stroke-opacity:1"
   id="path237" /><path
   d="m 598.68945,127.05859 -23.30078,40.35743 23.30078,40.35742 h 46.60157 l 23.30078,-40.35742 -23.30078,-40.35743 z"
   style="fill:none;stroke:#ffffff;stroke-width:5;stroke-dasharray:none;stroke-opacity:1"
   id="path236" /><path
   d="m 738.49219,127.05859 -23.30078,40.35743 23.30078,40.35742 h 46.60156 l 23.30078,-40.35742 -23.30078,-40.35743 z"
   style="fill:none;stroke:#ffffff;stroke-width:5;stroke-dasharray:none;stroke-opacity:1"
   id="path235" /><path
   d="m 458.88477,288.48633 -23.30079,40.35742 23.30079,40.35547 h 46.60156 l 23.30078,-40.35547 -23.30078,-40.35742 z"
   style="fill:none;stroke:#ffffff;stroke-width:5;stroke-dasharray:none;stroke-opacity:1"
   id="path234" /><path
   d="m 179.27539,288.48633 -23.29883,40.35742 23.29883,40.35547 h 46.60156 l 23.30078,-40.35547 -23.30078,-40.35742 z"
   style="fill:none;stroke:#ffffff;stroke-width:5;stroke-dasharray:none;stroke-opacity:1"
   id="path233" /><path
   d="m 319.08008,288.48633 -23.30078,40.35742 23.30078,40.35547 h 46.60156 l 23.30078,-40.35547 -23.30078,-40.35742 z"
   style="fill:none;stroke:#ffffff;stroke-width:5;stroke-dasharray:none;stroke-opacity:1"
   id="path232" /><path
   d="m 598.68945,288.48633 -23.30078,40.35742 23.30078,40.35547 h 46.60157 l 23.30078,-40.35547 -23.30078,-40.35742 z"
   style="fill:none;stroke:#ffffff;stroke-width:5;stroke-dasharray:none;stroke-opacity:1"
   id="path231" /><path
   d="m 738.49219,288.48633 -23.30078,40.35742 23.30078,40.35547 h 46.60156 l 23.30078,-40.35547 -23.30078,-40.35742 z"
   style="fill:none;stroke:#ffffff;stroke-width:5;stroke-dasharray:none;stroke-opacity:1"
   id="path230" /><path
   d="m 528.78711,86.701172 -23.30078,40.357418 23.30078,40.35743 h 46.60156 l 23.30078,-40.35743 -23.30078,-40.357418 z"
   style="fill:none;stroke:#ffffff;stroke-width:5;stroke-dasharray:none;stroke-opacity:1"
   id="path229" /><path
   d="m 249.17773,86.701172 -23.30078,40.357418 23.30078,40.35743 H 295.7793 L 319.08008,127.05859 295.7793,86.701172 Z"
   style="fill:none;stroke:#ffffff;stroke-width:5;stroke-dasharray:none;stroke-opacity:1"
   id="path228" /><path
   d="m 388.98242,86.701172 -23.30078,40.357418 23.30078,40.35743 h 46.60156 l 23.30079,-40.35743 -23.30079,-40.357418 z"
   style="fill:none;stroke:#ffffff;stroke-width:5;stroke-dasharray:none;stroke-opacity:1"
   id="path227" /><path
   d="m 668.5918,86.701172 -23.30078,40.357418 23.30078,40.35743 h 46.59961 l 23.30078,-40.35743 -23.30078,-40.357418 z"
   style="fill:none;stroke:#ffffff;stroke-width:5;stroke-dasharray:none;stroke-opacity:1"
   id="path226" /><path
   d="m 808.39453,86.701172 -23.30078,40.357418 23.30078,40.35743 h 46.60156 l 23.30078,-40.35743 -23.30078,-40.357418 z"
   style="fill:none;stroke:#ffffff;stroke-width:5;stroke-dasharray:none;stroke-opacity:1"
   id="path225" /><path
   d="m 528.78711,328.84375 -23.30078,40.35547 23.30078,40.35742 h 46.60156 l 23.30078,-40.35742 -23.30078,-40.35547 z"
   style="fill:none;stroke:#ffffff;stroke-width:5;stroke-dasharray:none;stroke-opacity:1"
   id="path224" /><path
   d="m 249.17773,328.84375 -23.30078,40.35547 23.30078,40.35742 h 46.60157 l 23.30078,-40.35742 -23.30078,-40.35547 z"
   style="fill:none;stroke:#ffffff;stroke-width:5;stroke-dasharray:none;stroke-opacity:1"
   id="path223" /><path
   d="m 388.98242,328.84375 -23.30078,40.35547 23.30078,40.35742 h 46.60156 l 23.30079,-40.35742 -23.30079,-40.35547 z"
   style="fill:none;stroke:#ffffff;stroke-width:5;stroke-dasharray:none;stroke-opacity:1"
   id="path222" /><path
   d="m 668.5918,328.84375 -23.30078,40.35547 23.30078,40.35742 h 46.59961 l 23.30078,-40.35742 -23.30078,-40.35547 z"
   style="fill:none;stroke:#ffffff;stroke-width:5;stroke-dasharray:none;stroke-opacity:1"
   id="path221" /><path
   d="m 808.39453,328.84375 -23.30078,40.35547 23.30078,40.35742 h 46.60156 l 23.30078,-40.35742 -23.30078,-40.35547 z"
   style="fill:none;stroke:#ffffff;stroke-width:5;stroke-dasharray:none;stroke-opacity:1"
   id="path220" /><path
   d="m 458.88477,46.345703 -23.30079,40.355469 23.30079,40.357418 h 46.60156 L 528.78711,86.701172 505.48633,46.345703 Z"
   style="fill:none;stroke:#ffffff;stroke-width:5;stroke-dasharray:none;stroke-opacity:1"
   id="path219" /><path
   d="m 179.27539,46.345703 -23.29883,40.355469 23.29883,40.357418 h 46.60156 L 249.17773,86.701172 225.87695,46.345703 Z"
   style="fill:none;stroke:#ffffff;stroke-width:5;stroke-dasharray:none;stroke-opacity:1"
   id="path218" /><path
   d="m 319.08008,46.345703 -23.30078,40.355469 23.30078,40.357418 h 46.60156 L 388.98242,86.701172 365.68164,46.345703 Z"
   style="fill:none;stroke:#ffffff;stroke-width:5;stroke-dasharray:none;stroke-opacity:1"
   id="path217" /><path
   d="m 598.68945,46.345703 -23.30078,40.355469 23.30078,40.357418 h 46.60157 L 668.5918,86.701172 645.29102,46.345703 Z"
   style="fill:none;stroke:#ffffff;stroke-width:5;stroke-dasharray:none;stroke-opacity:1"
   id="path216" /><path
   d="m 738.49219,46.345703 -23.30078,40.355469 23.30078,40.357418 h 46.60156 L 808.39453,86.701172 785.09375,46.345703 Z"
   style="fill:none;stroke:#ffffff;stroke-width:5;stroke-dasharray:none;stroke-opacity:1"
   id="path215" /><path
   d="m 458.88477,369.19922 -23.30079,40.35742 23.30079,40.35742 h 46.60156 l 23.30078,-40.35742 -23.30078,-40.35742 z"
   style="fill:none;stroke:#ffffff;stroke-width:5;stroke-dasharray:none;stroke-opacity:1"
   id="path214" /><path
   d="m 179.27539,369.19922 -23.29883,40.35742 23.29883,40.35742 h 46.60156 l 23.30078,-40.35742 -23.30078,-40.35742 z"
   style="fill:none;stroke:#ffffff;stroke-width:5;stroke-dasharray:none;stroke-opacity:1"
   id="path213" /><path
   d="m 319.08008,369.19922 -23.30078,40.35742 23.30078,40.35742 h 46.60156 l 23.30078,-40.35742 -23.30078,-40.35742 z"
   style="fill:none;stroke:#ffffff;stroke-width:5;stroke-dasharray:none;stroke-opacity:1"
   id="path212" /><path
   d="m 598.68945,369.19922 -23.30078,40.35742 23.30078,40.35742 h 46.60157 l 23.30078,-40.35742 -23.30078,-40.35742 z"
   style="fill:none;stroke:#ffffff;stroke-width:5;stroke-dasharray:none;stroke-opacity:1"
   id="path211" /><path
   d="m 738.49219,369.19922 -23.30078,40.35742 23.30078,40.35742 h 46.60156 l 23.30078,-40.35742 -23.30078,-40.35742 z"
   style="fill:none;stroke:#ffffff;stroke-width:5;stroke-dasharray:none;stroke-opacity:1"
   id="path210" /><path
   d="m 528.78711,5.9882812 -23.30078,40.3574218 23.30078,40.355469 h 46.60156 L 598.68945,46.345703 575.38867,5.9882812 Z"
   style="fill:none;stroke:#ffffff;stroke-width:5;stroke-dasharray:none;stroke-opacity:1"
   id="path209" /><path
   d="M 249.17773,5.9882812 225.87695,46.345703 249.17773,86.701172 H 295.7793 L 319.08008,46.345703 295.7793,5.9882812 Z"
   style="fill:none;stroke:#ffffff;stroke-width:5;stroke-dasharray:none;stroke-opacity:1"
   id="path208" /><path
   d="m 388.98242,5.9882812 -23.30078,40.3574218 23.30078,40.355469 h 46.60156 L 458.88477,46.345703 435.58398,5.9882812 Z"
   style="fill:none;stroke:#ffffff;stroke-width:5;stroke-dasharray:none;stroke-opacity:1"
   id="path207" /><path
   d="M 668.5918,5.9882812 645.29102,46.345703 668.5918,86.701172 h 46.59961 L 738.49219,46.345703 715.19141,5.9882812 Z"
   style="fill:none;stroke:#ffffff;stroke-width:5;stroke-dasharray:none;stroke-opacity:1"
   id="path206" /><path
   d="m 808.39453,5.9882812 -23.30078,40.3574218 23.30078,40.355469 h 46.60156 L 878.29687,46.345703 854.99609,5.9882812 Z"
   style="fill:none;stroke:#ffffff;stroke-width:5;stroke-dasharray:none;stroke-opacity:1"
   id="path205" /><path
   d="m 528.78711,409.55664 -23.30078,40.35742 23.30078,40.35547 h 46.60156 l 23.30078,-40.35547 -23.30078,-40.35742 z"
   style="fill:none;stroke:#ffffff;stroke-width:5;stroke-dasharray:none;stroke-opacity:1"
   id="path204" /><path
   d="m 249.17773,409.55664 -23.30078,40.35742 23.30078,40.35547 h 46.60157 l 23.30078,-40.35547 -23.30078,-40.35742 z"
   style="fill:none;stroke:#ffffff;stroke-width:5;stroke-dasharray:none;stroke-opacity:1"
   id="path203" /><path
   d="m 388.98242,409.55664 -23.30078,40.35742 23.30078,40.35547 h 46.60156 l 23.30079,-40.35547 -23.30079,-40.35742 z"
   style="fill:none;stroke:#ffffff;stroke-width:5;stroke-dasharray:none;stroke-opacity:1"
   id="path202" /><path
   d="m 668.5918,409.55664 -23.30078,40.35742 23.30078,40.35547 h 46.59961 l 23.30078,-40.35547 -23.30078,-40.35742 z"
   style="fill:none;stroke:#ffffff;stroke-width:5;stroke-dasharray:none;stroke-opacity:1"
   id="path201" /><path
   d="m 808.39453,409.55664 -23.30078,40.35742 23.30078,40.35547 h 46.60156 l 23.30078,-40.35547 -23.30078,-40.35742 z"
   style="fill:none;stroke:#ffffff;stroke-width:5;stroke-dasharray:none;stroke-opacity:1"
   id="path200" /><path
   d="m 458.88477,611.73828 -23.30079,40.35742 23.30079,40.35742 h 46.60156 l 23.30078,-40.35742 -23.30078,-40.35742 z"
   style="fill:none;stroke:#ffffff;stroke-width:5;stroke-dasharray:none;stroke-opacity:1"
   id="path199" /><path
   d="m 179.27539,611.73828 -23.29883,40.35742 23.29883,40.35742 h 46.60156 l 23.30078,-40.35742 -23.30078,-40.35742 z"
   style="fill:none;stroke:#ffffff;stroke-width:5;stroke-dasharray:none;stroke-opacity:1"
   id="path198" /><path
   d="m 319.08008,611.73828 -23.30078,40.35742 23.30078,40.35742 h 46.60156 l 23.30078,-40.35742 -23.30078,-40.35742 z"
   style="fill:none;stroke:#ffffff;stroke-width:5;stroke-dasharray:none;stroke-opacity:1"
   id="path197" /><path
   d="m 598.68945,611.73828 -23.30078,40.35742 23.30078,40.35742 h 46.60157 L 668.5918,652.0957 645.29102,611.73828 Z"
   style="fill:none;stroke:#ffffff;stroke-width:5;stroke-dasharray:none;stroke-opacity:1"
   id="path196" /><path
   d="m 738.49219,611.73828 -23.30078,40.35742 23.30078,40.35742 h 46.60156 l 23.30078,-40.35742 -23.30078,-40.35742 z"
   style="fill:none;stroke:#ffffff;stroke-width:5;stroke-dasharray:none;stroke-opacity:1"
   id="path195" /><path
   d="m 528.78711,571.38281 -23.30078,40.35547 23.30078,40.35742 h 46.60156 l 23.30078,-40.35742 -23.30078,-40.35547 z"
   style="fill:none;stroke:#ffffff;stroke-width:5;stroke-dasharray:none;stroke-opacity:1"
   id="path194" /><path
   d="m 249.17773,571.38281 -23.30078,40.35547 23.30078,40.35742 h 46.60157 l 23.30078,-40.35742 -23.30078,-40.35547 z"
   style="fill:none;stroke:#ffffff;stroke-width:5;stroke-dasharray:none;stroke-opacity:1"
   id="path193" /><path
   d="m 388.98242,571.38281 -23.30078,40.35547 23.30078,40.35742 h 46.60156 l 23.30079,-40.35742 -23.30079,-40.35547 z"
   style="fill:none;stroke:#ffffff;stroke-width:5;stroke-dasharray:none;stroke-opacity:1"
   id="path192" /><path
   d="m 668.5918,571.38281 -23.30078,40.35547 23.30078,40.35742 h 46.59961 l 23.30078,-40.35742 -23.30078,-40.35547 z"
   style="fill:none;stroke:#ffffff;stroke-width:5;stroke-dasharray:none;stroke-opacity:1"
   id="path191" /><path
   d="m 808.39453,571.38281 -23.30078,40.35547 23.30078,40.35742 h 46.60156 l 23.30078,-40.35742 -23.30078,-40.35547 z"
   style="fill:none;stroke:#ffffff;stroke-width:5;stroke-dasharray:none;stroke-opacity:1"
   id="path190" /><path
   d="m 528.78711,652.0957 -23.30078,40.35742 23.30078,40.35547 h 46.60156 l 23.30078,-40.35547 -23.30078,-40.35742 z"
   style="fill:none;stroke:#ffffff;stroke-width:5;stroke-dasharray:none;stroke-opacity:1"
   id="path189" /><path
   d="m 249.17773,652.0957 -23.30078,40.35742 23.30078,40.35547 H 295.7793 L 319.08008,692.45312 295.7793,652.0957 Z"
   style="fill:none;stroke:#ffffff;stroke-width:5;stroke-dasharray:none;stroke-opacity:1"
   id="path188" /><path
   d="m 388.98242,652.0957 -23.30078,40.35742 23.30078,40.35547 h 46.60156 l 23.30079,-40.35547 -23.30079,-40.35742 z"
   style="fill:none;stroke:#ffffff;stroke-width:5;stroke-dasharray:none;stroke-opacity:1"
   id="path187" /><path
   d="m 668.5918,652.0957 -23.30078,40.35742 23.30078,40.35547 h 46.59961 l 23.30078,-40.35547 -23.30078,-40.35742 z"
   style="fill:none;stroke:#ffffff;stroke-width:5;stroke-dasharray:none;stroke-opacity:1"
   id="path186" /><path
   d="m 808.39453,652.0957 -23.30078,40.35742 23.30078,40.35547 h 46.60156 l 23.30078,-40.35547 -23.30078,-40.35742 z"
   style="fill:none;stroke:#ffffff;stroke-width:5;stroke-dasharray:none;stroke-opacity:1"
   id="path185" /><path
   d="m 458.88477,531.02539 -23.30079,40.35742 23.30079,40.35547 h 46.60156 l 23.30078,-40.35547 -23.30078,-40.35742 z"
   style="fill:none;stroke:#ffffff;stroke-width:5;stroke-dasharray:none;stroke-opacity:1"
   id="path184" /><path
   d="m 179.27539,531.02539 -23.29883,40.35742 23.29883,40.35547 h 46.60156 l 23.30078,-40.35547 -23.30078,-40.35742 z"
   style="fill:none;stroke:#ffffff;stroke-width:5;stroke-dasharray:none;stroke-opacity:1"
   id="path183" /><path
   d="m 319.08008,531.02539 -23.30078,40.35742 23.30078,40.35547 h 46.60156 l 23.30078,-40.35547 -23.30078,-40.35742 z"
   style="fill:none;stroke:#ffffff;stroke-width:5;stroke-dasharray:none;stroke-opacity:1"
   id="path182" /><path
   d="m 598.68945,531.02539 -23.30078,40.35742 23.30078,40.35547 h 46.60157 l 23.30078,-40.35547 -23.30078,-40.35742 z"
   style="fill:none;stroke:#ffffff;stroke-width:5;stroke-dasharray:none;stroke-opacity:1"
   id="path181" /><path
   d="m 738.49219,531.02539 -23.30078,40.35742 23.30078,40.35547 h 46.60156 l 23.30078,-40.35547 -23.30078,-40.35742 z"
   style="fill:none;stroke:#ffffff;stroke-width:5;stroke-dasharray:none;stroke-opacity:1"
   id="path180" /><path
   d="m 458.88477,692.45312 -23.30079,40.35547 23.30079,40.35743 h 46.60156 l 23.30078,-40.35743 -23.30078,-40.35547 z"
   style="fill:none;stroke:#ffffff;stroke-width:5;stroke-dasharray:none;stroke-opacity:1"
   id="path179" /><path
   d="m 179.27539,692.45312 -23.29883,40.35547 23.29883,40.35743 h 46.60156 l 23.30078,-40.35743 -23.30078,-40.35547 z"
   style="fill:none;stroke:#ffffff;stroke-width:5;stroke-dasharray:none;stroke-opacity:1"
   id="path178" /><path
   d="m 319.08008,692.45312 -23.30078,40.35547 23.30078,40.35743 h 46.60156 l 23.30078,-40.35743 -23.30078,-40.35547 z"
   style="fill:none;stroke:#ffffff;stroke-width:5;stroke-dasharray:none;stroke-opacity:1"
   id="path177" /><path
   d="m 598.68945,692.45312 -23.30078,40.35547 23.30078,40.35743 h 46.60157 l 23.30078,-40.35743 -23.30078,-40.35547 z"
   style="fill:none;stroke:#ffffff;stroke-width:5;stroke-dasharray:none;stroke-opacity:1"
   id="path176" /><path
   d="m 738.49219,692.45312 -23.30078,40.35547 23.30078,40.35743 h 46.60156 l 23.30078,-40.35743 -23.30078,-40.35547 z"
   style="fill:none;stroke:#ffffff;stroke-width:5;stroke-dasharray:none;stroke-opacity:1"
   id="path175" /><path
   d="m 528.78711,490.66797 -23.30078,40.35742 23.30078,40.35742 h 46.60156 l 23.30078,-40.35742 -23.30078,-40.35742 z"
   style="fill:none;stroke:#ffffff;stroke-width:5;stroke-dasharray:none;stroke-opacity:1"
   id="path174" /><path
   d="m 249.17773,490.66797 -23.30078,40.35742 23.30078,40.35742 h 46.60157 l 23.30078,-40.35742 -23.30078,-40.35742 z"
   style="fill:none;stroke:#ffffff;stroke-width:5;stroke-dasharray:none;stroke-opacity:1"
   id="path173" /><path
   d="m 388.98242,490.66797 -23.30078,40.35742 23.30078,40.35742 h 46.60156 l 23.30079,-40.35742 -23.30079,-40.35742 z"
   style="fill:none;stroke:#ffffff;stroke-width:5;stroke-dasharray:none;stroke-opacity:1"
   id="path172" /><path
   d="m 668.5918,490.66797 -23.30078,40.35742 23.30078,40.35742 h 46.59961 l 23.30078,-40.35742 -23.30078,-40.35742 z"
   style="fill:none;stroke:#ffffff;stroke-width:5;stroke-dasharray:none;stroke-opacity:1"
   id="path171" /><path
   d="m 808.39453,490.66797 -23.30078,40.35742 23.30078,40.35742 h 46.60156 l 23.30078,-40.35742 -23.30078,-40.35742 z"
   style="fill:none;stroke:#ffffff;stroke-width:5;stroke-dasharray:none;stroke-opacity:1"
   id="path170" /><path
   d="m 528.78711,732.80859 -23.30078,40.35743 23.30078,40.35742 h 46.60156 l 23.30078,-40.35742 -23.30078,-40.35743 z"
   style="fill:none;stroke:#ffffff;stroke-width:5;stroke-dasharray:none;stroke-opacity:1"
   id="path169" /><path
   d="m 249.17773,732.80859 -23.30078,40.35743 23.30078,40.35742 h 46.60157 l 23.30078,-40.35742 -23.30078,-40.35743 z"
   style="fill:none;stroke:#ffffff;stroke-width:5;stroke-dasharray:none;stroke-opacity:1"
   id="path168" /><path
   d="m 388.98242,732.80859 -23.30078,40.35743 23.30078,40.35742 h 46.60156 l 23.30079,-40.35742 -23.30079,-40.35743 z"
   style="fill:none;stroke:#ffffff;stroke-width:5;stroke-dasharray:none;stroke-opacity:1"
   id="path167" /><path
   d="m 668.5918,732.80859 -23.30078,40.35743 23.30078,40.35742 h 46.59961 l 23.30078,-40.35742 -23.30078,-40.35743 z"
   style="fill:none;stroke:#ffffff;stroke-width:5;stroke-dasharray:none;stroke-opacity:1"
   id="path166" /><path
   d="m 808.39453,732.80859 -23.30078,40.35743 23.30078,40.35742 h 46.60156 l 23.30078,-40.35742 -23.30078,-40.35743 z"
   style="fill:none;stroke:#ffffff;stroke-width:5;stroke-dasharray:none;stroke-opacity:1"
   id="path165" /><path
   d="m 458.88477,450.3125 -23.30079,40.35547 23.30079,40.35742 h 46.60156 l 23.30078,-40.35742 -23.30078,-40.35547 z"
   style="fill:none;stroke:#ffffff;stroke-width:5;stroke-dasharray:none;stroke-opacity:1"
   id="path164" /><path
   d="m 179.27539,450.3125 -23.29883,40.35547 23.29883,40.35742 h 46.60156 l 23.30078,-40.35742 -23.30078,-40.35547 z"
   style="fill:none;stroke:#ffffff;stroke-width:5;stroke-dasharray:none;stroke-opacity:1"
   id="path163" /><path
   d="m 319.08008,450.3125 -23.30078,40.35547 23.30078,40.35742 h 46.60156 l 23.30078,-40.35742 -23.30078,-40.35547 z"
   style="fill:none;stroke:#ffffff;stroke-width:5;stroke-dasharray:none;stroke-opacity:1"
   id="path162" /><path
   d="m 598.68945,450.3125 -23.30078,40.35547 23.30078,40.35742 h 46.60157 L 668.5918,490.66797 645.29102,450.3125 Z"
   style="fill:none;stroke:#ffffff;stroke-width:5;stroke-dasharray:none;stroke-opacity:1"
   id="path161" /><path
   d="m 738.49219,450.3125 -23.30078,40.35547 23.30078,40.35742 h 46.60156 l 23.30078,-40.35742 -23.30078,-40.35547 z"
   style="fill:none;stroke:#ffffff;stroke-width:5;stroke-dasharray:none;stroke-opacity:1"
   id="path160" /><path
   d="m 458.88477,773.16602 -23.30079,40.35742 23.30079,40.35742 h 46.60156 l 23.30078,-40.35742 -23.30078,-40.35742 z"
   style="fill:none;stroke:#ffffff;stroke-width:5;stroke-dasharray:none;stroke-opacity:1"
   id="path159" /><path
   d="m 179.27539,773.16602 -23.29883,40.35742 23.29883,40.35742 h 46.60156 l 23.30078,-40.35742 -23.30078,-40.35742 z"
   style="fill:none;stroke:#ffffff;stroke-width:5;stroke-dasharray:none;stroke-opacity:1"
   id="path158" /><path
   d="m 319.08008,773.16602 -23.30078,40.35742 23.30078,40.35742 h 46.60156 l 23.30078,-40.35742 -23.30078,-40.35742 z"
   style="fill:none;stroke:#ffffff;stroke-width:5;stroke-dasharray:none;stroke-opacity:1"
   id="path157" /><path
   d="m 598.68945,773.16602 -23.30078,40.35742 23.30078,40.35742 h 46.60157 l 23.30078,-40.35742 -23.30078,-40.35742 z"
   style="fill:none;stroke:#ffffff;stroke-width:5;stroke-dasharray:none;stroke-opacity:1"
   id="path156" /><path
   d="m 738.49219,773.16602 -23.30078,40.35742 23.30078,40.35742 h 46.60156 l 23.30078,-40.35742 -23.30078,-40.35742 z"
   style="fill:none;stroke:#ffffff;stroke-width:5;stroke-dasharray:none;stroke-opacity:1"
   id="path155" /><path
   d="m 528.78711,813.52344 -23.30078,40.35742 23.30078,40.35547 h 46.60156 l 23.30078,-40.35547 -23.30078,-40.35742 z"
   style="fill:none;stroke:#ffffff;stroke-width:5;stroke-dasharray:none;stroke-opacity:1"
   id="path154" /><path
   d="m 249.17773,813.52344 -23.30078,40.35742 23.30078,40.35547 h 46.60157 l 23.30078,-40.35547 -23.30078,-40.35742 z"
   style="fill:none;stroke:#ffffff;stroke-width:5;stroke-dasharray:none;stroke-opacity:1"
   id="path153" /><path
   d="m 388.98242,813.52344 -23.30078,40.35742 23.30078,40.35547 h 46.60156 l 23.30079,-40.35547 -23.30079,-40.35742 z"
   style="fill:none;stroke:#ffffff;stroke-width:5;stroke-dasharray:none;stroke-opacity:1"
   id="path152" /><path
   d="m 668.5918,813.52344 -23.30078,40.35742 23.30078,40.35547 h 46.59961 l 23.30078,-40.35547 -23.30078,-40.35742 z"
   style="fill:none;stroke:#ffffff;stroke-width:5;stroke-dasharray:none;stroke-opacity:1"
   id="path151" /><path
   d="m 808.39453,813.52344 -23.30078,40.35742 23.30078,40.35547 h 46.60156 l 23.30078,-40.35547 -23.30078,-40.35742 z"
   style="fill:none;stroke:#ffffff;stroke-width:5;stroke-dasharray:none;stroke-opacity:1"
   id="path150" /><path
   d="m 39.472656,207.77344 -23.300781,40.35547 23.300781,40.35742 H 86.074219 L 109.375,248.12891 86.074219,207.77344 Z"
   style="fill:none;stroke:#ffffff;stroke-width:5;stroke-dasharray:none;stroke-opacity:1"
   id="path149" /><path
   d="M 109.375,167.41602 86.074219,207.77344 109.375,248.12891 h 46.60156 l 23.29883,-40.35547 -23.29883,-40.35742 z"
   style="fill:none;stroke:#ffffff;stroke-width:5;stroke-dasharray:none;stroke-opacity:1"
   id="path148" /><path
   d="M 109.375,248.12891 86.074219,288.48633 109.375,328.84375 h 46.60156 l 23.29883,-40.35742 -23.29883,-40.35742 z"
   style="fill:none;stroke:#ffffff;stroke-width:5;stroke-dasharray:none;stroke-opacity:1"
   id="path147" /><path
   d="m 39.472656,127.05859 -23.300781,40.35743 23.300781,40.35742 H 86.074219 L 109.375,167.41602 86.074219,127.05859 Z"
   style="fill:none;stroke:#ffffff;stroke-width:5;stroke-dasharray:none;stroke-opacity:1"
   id="path146" /><path
   d="m 39.472656,288.48633 -23.300781,40.35742 23.300781,40.35547 H 86.074219 L 109.375,328.84375 86.074219,288.48633 Z"
   style="fill:none;stroke:#ffffff;stroke-width:5;stroke-dasharray:none;stroke-opacity:1"
   id="path145" /><path
   d="M 109.375,86.701172 86.074219,127.05859 109.375,167.41602 h 46.60156 l 23.29883,-40.35743 -23.29883,-40.357418 z"
   style="fill:none;stroke:#ffffff;stroke-width:5;stroke-dasharray:none;stroke-opacity:1"
   id="path144" /><path
   d="M 109.375,328.84375 86.074219,369.19922 109.375,409.55664 h 46.60156 l 23.29883,-40.35742 -23.29883,-40.35547 z"
   style="fill:none;stroke:#ffffff;stroke-width:5;stroke-dasharray:none;stroke-opacity:1"
   id="path143" /><path
   d="M 39.472656,46.345703 16.171875,86.701172 39.472656,127.05859 H 86.074219 L 109.375,86.701172 86.074219,46.345703 Z"
   style="fill:none;stroke:#ffffff;stroke-width:5;stroke-dasharray:none;stroke-opacity:1"
   id="path142" /><path
   d="m 39.472656,369.19922 -23.300781,40.35742 23.300781,40.35742 H 86.074219 L 109.375,409.55664 86.074219,369.19922 Z"
   style="fill:none;stroke:#ffffff;stroke-width:5;stroke-dasharray:none;stroke-opacity:1"
   id="path141" /><path
   d="M 109.375,5.9882812 86.074219,46.345703 109.375,86.701172 h 46.60156 L 179.27539,46.345703 155.97656,5.9882812 Z"
   style="fill:none;stroke:#ffffff;stroke-width:5;stroke-dasharray:none;stroke-opacity:1"
   id="path140" /><path
   d="M 109.375,409.55664 86.074219,449.91406 109.375,490.26953 h 46.60156 l 23.29883,-40.35547 -23.29883,-40.35742 z"
   style="fill:none;stroke:#ffffff;stroke-width:5;stroke-dasharray:none;stroke-opacity:1"
   id="path139" /><path
   d="M 39.472656,611.73828 16.171875,652.0957 39.472656,692.45312 H 86.074219 L 109.375,652.0957 86.074219,611.73828 Z"
   style="fill:none;stroke:#ffffff;stroke-width:5;stroke-dasharray:none;stroke-opacity:1"
   id="path138" /><path
   d="M 109.375,571.38281 86.074219,611.73828 109.375,652.0957 h 46.60156 l 23.29883,-40.35742 -23.29883,-40.35547 z"
   style="fill:none;stroke:#ffffff;stroke-width:5;stroke-dasharray:none;stroke-opacity:1"
   id="path137" /><path
   d="M 109.375,652.0957 86.074219,692.45312 109.375,732.80859 h 46.60156 l 23.29883,-40.35547 -23.29883,-40.35742 z"
   style="fill:none;stroke:#ffffff;stroke-width:5;stroke-dasharray:none;stroke-opacity:1"
   id="path136" /><path
   d="m 39.472656,531.02539 -23.300781,40.35742 23.300781,40.35547 H 86.074219 L 109.375,571.38281 86.074219,531.02539 Z"
   style="fill:none;stroke:#ffffff;stroke-width:5;stroke-dasharray:none;stroke-opacity:1"
   id="path135" /><path
   d="m 39.472656,692.45312 -23.300781,40.35547 23.300781,40.35743 H 86.074219 L 109.375,732.80859 86.074219,692.45312 Z"
   style="fill:none;stroke:#ffffff;stroke-width:5;stroke-dasharray:none;stroke-opacity:1"
   id="path134" /><path
   d="M 109.375,490.66797 86.074219,531.02539 109.375,571.38281 h 46.60156 l 23.29883,-40.35742 -23.29883,-40.35742 z"
   style="fill:none;stroke:#ffffff;stroke-width:5;stroke-dasharray:none;stroke-opacity:1"
   id="path133" /><path
   d="M 109.375,732.80859 86.074219,773.16602 109.375,813.52344 h 46.60156 l 23.29883,-40.35742 -23.29883,-40.35743 z"
   style="fill:none;stroke:#ffffff;stroke-width:5;stroke-dasharray:none;stroke-opacity:1"
   id="path132" /><path
   d="m 39.472656,450.3125 -23.300781,40.35547 23.300781,40.35742 H 86.074219 L 109.375,490.66797 86.074219,450.3125 Z"
   style="fill:none;stroke:#ffffff;stroke-width:5;stroke-dasharray:none;stroke-opacity:1"
   id="path131" /><path
   d="m 39.472656,773.16602 -23.300781,40.35742 23.300781,40.35742 H 86.074219 L 109.375,813.52344 86.074219,773.16602 Z"
   style="fill:none;stroke:#ffffff;stroke-width:5;stroke-dasharray:none;stroke-opacity:1"
   id="path130" /><path
   d="M 109.375,813.52344 86.074219,853.88086 109.375,894.23633 h 46.60156 l 23.29883,-40.35547 -23.29883,-40.35742 z"
   style="fill:none;stroke:#ffffff;stroke-width:5;stroke-dasharray:none;stroke-opacity:1"
   id="path129" />
</svg>
